<?xml version="1.0" standalone="no"?>
<!DOCTYPE svg PUBLIC "-//W3C//DTD SVG 20010904//EN"
 "http://www.w3.org/TR/2001/REC-SVG-20010904/DTD/svg10.dtd">
<svg version="1.0" xmlns="http://www.w3.org/2000/svg"
 width="700.000000pt" height="700.000000pt" viewBox="0 0 700.000000 700.000000"
 preserveAspectRatio="xMidYMid meet">
<metadata>
Created by potrace 1.11, written by Peter Selinger 2001-2013
</metadata>
<g transform="translate(0.000000,700.000000) scale(0.100000,-0.100000)"
fill="#000000" stroke="none">
<path d="M1988 5399 c-631 -67 -1131 -350 -1431 -810 -403 -618 -407 -1519 -9
-2134 143 -222 320 -397 552 -548 249 -161 569 -268 915 -307 53 -6 467 -10
1018 -10 l927 0 0 1130 0 1130 -930 0 -930 0 0 -350 0 -350 470 0 470 0 0
-350 0 -350 -437 0 c-485 0 -566 7 -723 60 -225 75 -392 200 -517 387 -118
178 -166 354 -167 613 -1 332 83 561 273 751 95 94 183 151 313 204 82 33 257
75 312 75 l26 0 0 435 0 435 -27 -1 c-16 -1 -63 -5 -105 -10z"/>
<path d="M3040 4980 l0 -430 893 0 c586 0 923 -4 982 -11 478 -58 783 -330
872 -776 24 -124 24 -387 -1 -503 -52 -243 -166 -437 -338 -575 -139 -111
-320 -190 -495 -217 l-73 -12 0 -433 c0 -238 1 -433 3 -433 1 0 60 7 131 15
380 44 719 174 1001 382 120 89 304 275 388 393 139 196 259 481 307 726 66
344 42 738 -66 1064 -46 140 -158 363 -241 480 -86 121 -271 305 -393 393
-184 131 -474 258 -700 307 -251 55 -211 53 -1277 57 l-993 4 0 -431z"/>
</g>
</svg>
