<svg id="Layer_1" data-name="Layer 1" xmlns="http://www.w3.org/2000/svg" viewBox="0 0 83.24 48.96"><defs><style>.cls-1{fill:#559ad3;}.cls-2{fill:#efac49;}</style></defs><title>personal logo</title><path class="cls-1" d="M363.57,313.25h12v9.08h-9.87c-8.21,0-13.9-5.4-13.9-13.61s4.7-12.68,12-13.36v-11c-15,.74-23.91,10.82-23.91,24.36,0,14.26,10.59,24.55,25.85,24.55h21.67v-20h0v-8.92H363.57Z" transform="translate(-339.81 -284.31)"/><path class="cls-2" d="M397.2,284.31l-15.77.05-5.9,0v10.93h11.81v0h9.87c8.35,0,13.9,4.68,13.9,13.47,0,7.54-4.81,12.7-12,13.49v11c14.21-.84,23.91-10.85,23.91-24.49C423,294.61,413.33,284.24,397.2,284.31Z" transform="translate(-339.81 -284.31)"/></svg>